<svg viewBox="0 0 100 140" fill="none" xmlns="http://www.w3.org/2000/svg">
  <path d="M50 130 C20 100 5 70 5 45 C5 15 25 5 50 8 C75 5 95 15 95 45 C95 70 80 100 50 130Z" fill="#5C7A5F" opacity="0.12" />
  <path d="M50 130 C20 100 5 70 5 45 C5 15 25 5 50 8 C75 5 95 15 95 45 C95 70 80 100 50 130Z" stroke="#5C7A5F" stroke-width="1.2" fill="none" opacity="0.8" />
  <path d="M50 12 L50 128" stroke="#5C7A5F" stroke-width="1" opacity="0.8" />
  <path d="M50 25 C30 33 15 39 8 45" stroke="#5C7A5F" stroke-width="0.7" opacity="0.6" />
  <path d="M50 40 C70 48 85 54 92 60" stroke="#5C7A5F" stroke-width="0.7" opacity="0.6" />
  <path d="M50 55 C30 63 15 69 8 75" stroke="#5C7A5F" stroke-width="0.7" opacity="0.6" />
  <path d="M50 70 C70 78 85 84 92 90" stroke="#5C7A5F" stroke-width="0.7" opacity="0.6" />
  <path d="M50 90 C30 98 15 104 8 110" stroke="#5C7A5F" stroke-width="0.7" opacity="0.6" />
</svg>
